<svg xmlns="http://www.w3.org/2000/svg" width="31.798" height="31.798" viewBox="0 0 31.798 31.798">
  <g id="icon-avatar" transform="translate(0.5 0.5)">
    <path id="Path_171" data-name="Path 171" d="M70.124,58.484v-.018a7.378,7.378,0,0,0-7.4-6.324h-.165a7.437,7.437,0,0,0-7.4,6.238l0,.01V58.4h0v.082a.689.689,0,0,1-1.376,0v-.082h0a8.649,8.649,0,0,1,5.554-7l.236-.089-.21-.14a6.266,6.266,0,0,1-2.8-5.2,6.082,6.082,0,1,1,9.363,5.2l-.222.137.243.094a8.821,8.821,0,0,1,5.556,6.927l0,.022c0,.007,0,.016,0,.028,0,.04,0,.1,0,.181a.688.688,0,0,1-1.375,0v-.165Zm-2.615-12.5a4.871,4.871,0,1,0-4.871,4.871A4.876,4.876,0,0,0,67.509,45.982Z" transform="translate(-47.239 -35.159)" stroke="#000" stroke-width="1"/>
    <path id="Path_172" data-name="Path 172" d="M18.839,34.238a15.4,15.4,0,1,1,15.4-15.4A15.392,15.392,0,0,1,18.839,34.238Zm0-29.669A14.271,14.271,0,1,0,33.109,18.839,14.276,14.276,0,0,0,18.839,4.568Z" transform="translate(-3.44 -3.44)" stroke="#000" stroke-width="1"/>
  </g>
</svg>
