<svg id="icon-shopping-cart" xmlns="http://www.w3.org/2000/svg" width="30.5" height="30.5" viewBox="0 0 30.5 30.5">
  <path id="Path_170" data-name="Path 170" d="M33.961,36.108a2.164,2.164,0,0,0-2.182,2.172,2.182,2.182,0,1,0,4.363,0A2.168,2.168,0,0,0,33.961,36.108Zm-11.662,0a2.109,2.109,0,0,0-2.154,2.157A2.167,2.167,0,0,0,22.3,40.49a2.221,2.221,0,0,0,2.219-2.225A2.162,2.162,0,0,0,22.3,36.108ZM38.057,15.856l-21.726.037-.271-3.227a3.294,3.294,0,0,0-2.555-2.6S10,9.093,10,13.917l2.088,0s3.234,18.9,3.234,19.473a1.286,1.286,0,0,0,1.264,1.307h19.9c.7,0,1.1-.669,1.1-1.475,0-1.176-1.176-1.419-1.849-1.419H18.7v-3l19.414.037a3.349,3.349,0,0,0,2.372-3.193l.012-7.827A2.208,2.208,0,0,0,38.057,15.856ZM37.593,24.8a1.2,1.2,0,0,1-1.236,1.152H20.367a1.979,1.979,0,0,1-1.659-1.45l-1.472-4.659a1.2,1.2,0,0,1,1.236-1.152H36.358a1.2,1.2,0,0,1,1.236,1.152Z" transform="translate(-10 -9.989)"/>
</svg>
