<svg id="logo-twitter" xmlns="http://www.w3.org/2000/svg" width="25" height="25" viewBox="0 0 25 25">
  <circle id="Ellipse_4" data-name="Ellipse 4" cx="12.5" cy="12.5" r="12.5"/>
  <path id="Path_9" data-name="Path 9" d="M246.827,144.7a6.153,6.153,0,0,1-1.734.463,2.963,2.963,0,0,0,1.327-1.626,6.13,6.13,0,0,1-1.917.713,3.052,3.052,0,0,0-2.2-.928,2.979,2.979,0,0,0-3.018,2.939,2.9,2.9,0,0,0,.078.67,8.648,8.648,0,0,1-6.221-3.071,2.866,2.866,0,0,0-.409,1.478,2.918,2.918,0,0,0,1.343,2.446,3.066,3.066,0,0,1-1.367-.367v.037a2.961,2.961,0,0,0,2.421,2.882,3.078,3.078,0,0,1-.8.1,3.143,3.143,0,0,1-.568-.052,3.013,3.013,0,0,0,2.819,2.041,6.212,6.212,0,0,1-4.468,1.217,8.709,8.709,0,0,0,4.626,1.321,8.412,8.412,0,0,0,8.587-8.362q0-.191-.009-.38a6.063,6.063,0,0,0,1.508-1.523Z" transform="translate(-226.971 -136.797)" fill="#fff"/>
</svg>
