<svg id="logo-instagram" xmlns="http://www.w3.org/2000/svg" width="25" height="25" viewBox="0 0 25 25">
  <circle id="Ellipse_8" data-name="Ellipse 8" cx="12.5" cy="12.5" r="12.5"/>
  <path id="Path_8" data-name="Path 8" d="M24.873,18c-1.866,0-2.1.008-2.834.042a5.039,5.039,0,0,0-1.668.32,3.517,3.517,0,0,0-2.011,2.011,5.028,5.028,0,0,0-.319,1.669c-.033.734-.041.968-.041,2.836s.008,2.1.042,2.835a5.059,5.059,0,0,0,.319,1.669A3.518,3.518,0,0,0,20.37,31.4a5.044,5.044,0,0,0,1.668.32c.733.033.967.042,2.833.042s2.1-.008,2.833-.042a5.047,5.047,0,0,0,1.669-.32,3.523,3.523,0,0,0,2.01-2.012,5.1,5.1,0,0,0,.319-1.669c.033-.734.042-.968.042-2.836s-.009-2.1-.042-2.836a5.1,5.1,0,0,0-.319-1.669,3.518,3.518,0,0,0-2.01-2.012,5.055,5.055,0,0,0-1.669-.32c-.733-.033-.966-.042-2.833-.042Zm-.617,1.24h.617c1.835,0,2.052.007,2.777.04a3.8,3.8,0,0,1,1.276.237,2.278,2.278,0,0,1,1.3,1.305,3.8,3.8,0,0,1,.237,1.277c.033.725.04.943.04,2.779s-.007,2.053-.04,2.779a3.807,3.807,0,0,1-.237,1.277,2.28,2.28,0,0,1-1.3,1.3,3.788,3.788,0,0,1-1.276.237c-.724.033-.942.04-2.777.04s-2.053-.007-2.777-.04a3.809,3.809,0,0,1-1.276-.237,2.278,2.278,0,0,1-1.3-1.305,3.8,3.8,0,0,1-.237-1.277c-.033-.725-.04-.943-.04-2.78s.007-2.053.04-2.779a3.811,3.811,0,0,1,.237-1.277,2.278,2.278,0,0,1,1.3-1.306,3.794,3.794,0,0,1,1.276-.237c.634-.029.88-.037,2.16-.039Zm4.285,1.142a.825.825,0,1,0,.825.825.825.825,0,0,0-.825-.825Zm-3.668.964A3.532,3.532,0,1,0,28.4,24.878a3.531,3.531,0,0,0-3.529-3.532Zm0,1.24a2.293,2.293,0,1,1-2.291,2.293A2.292,2.292,0,0,1,24.873,22.586Z" transform="translate(-12.377 -12.376)" fill="#fff"/>
</svg>
